<?xml version="1.0" encoding="utf-8"?>
<!-- Generator: Adobe Illustrator 24.1.1, SVG Export Plug-In . SVG Version: 6.00 Build 0)  -->
<svg version="1.1"
	 id="svg6" xmlns:cc="http://creativecommons.org/ns#" xmlns:dc="http://purl.org/dc/elements/1.1/" xmlns:inkscape="http://www.inkscape.org/namespaces/inkscape" xmlns:rdf="http://www.w3.org/1999/02/22-rdf-syntax-ns#" xmlns:sodipodi="http://sodipodi.sourceforge.net/DTD/sodipodi-0.dtd" xmlns:svg="http://www.w3.org/2000/svg"
	 xmlns="http://www.w3.org/2000/svg" xmlns:xlink="http://www.w3.org/1999/xlink" x="0px" y="0px" viewBox="0 0 512 512"
	 style="enable-background:new 0 0 512 512;" xml:space="preserve">
<sodipodi:namedview  bordercolor="#666666" borderopacity="1" gridtolerance="10" guidetolerance="10" id="namedview8" inkscape:current-layer="svg6" inkscape:cx="245.87215" inkscape:cy="254.15909" inkscape:document-rotation="0" inkscape:guide-bbox="true" inkscape:pageopacity="0" inkscape:pageshadow="2" inkscape:snap-page="true" inkscape:window-height="1027" inkscape:window-maximized="1" inkscape:window-width="1920" inkscape:window-x="1912" inkscape:window-y="-4" inkscape:zoom="1.7121622" objecttolerance="10" pagecolor="#ffffff" showgrid="false" showguides="true">
	<sodipodi:guide  id="guide48" orientation="0,-1" position="393.52558,255.40465"></sodipodi:guide>
	<sodipodi:guide  id="guide10" orientation="0,-1" position="321.23125,292.97869"></sodipodi:guide>
	<sodipodi:guide  id="guide14" orientation="1,0" position="480,292.91211"></sodipodi:guide>
	<sodipodi:guide  id="guide16" orientation="1,0" position="31.539068,267.86425"></sodipodi:guide>
</sodipodi:namedview>
<path id="path2" d="M37.6,66.7C22.9,66.7,11,78.6,11,93.3v325.4c0,14.7,11.9,26.6,26.6,26.6h440.7c14.8,0,26.6-11.9,26.6-26.6V93.3
	c0-14.7-11.9-26.6-26.6-26.6H37.6z M324.3,91.6c0,0,0.1,0,0.1,0c12.3,0,22.2,9.9,22.2,22.2c0,0,0,0,0,0c0,12.2-9.9,22.2-22.2,22.2
	c0,0,0,0,0,0c-12.3,0-22.2-9.9-22.2-22.2c0,0,0,0,0,0C302.2,101.6,312.1,91.7,324.3,91.6z M386.7,91.6c0,0,0.1,0,0.1,0
	c12.3,0,22.2,9.9,22.2,22.2c0,0,0,0,0,0c0,12.2-9.9,22.2-22.2,22.2c0,0,0,0,0,0c-12.3,0-22.2-9.9-22.2-22.2c0,0,0,0,0,0
	C364.6,101.6,374.5,91.7,386.7,91.6z M447.7,91.6c0,0,0.1,0,0.1,0c12.3,0,22.2,9.9,22.2,22.2c0,0,0,0,0,0c0,12.2-9.9,22.2-22.2,22.2
	c0,0,0,0,0,0c-12.3,0-22.2-9.9-22.2-22.2c0,0,0,0,0,0C425.6,101.6,435.5,91.7,447.7,91.6z M67.3,163.5h387.2c9.4,0,17,7.6,17,16.9
	v208.1c0,9.4-7.6,16.9-17,16.9H67.3c-9.4,0-17-7.6-17-16.9V180.4C50.3,171,57.9,163.5,67.3,163.5z M71.7,188.2V228l69.1,30.2v0.5
	l-69.1,27.7v39.6l127-56.9v-21.6L71.7,188.2z M202.2,306.2v37.2h115.6v-37.2H202.2z"/>
</svg>
