<?xml version="1.0" encoding="utf-8"?>
<!-- Generator: Adobe Illustrator 24.1.1, SVG Export Plug-In . SVG Version: 6.00 Build 0)  -->
<svg version="1.1"
	 id="svg4" inkscape:version="1.0 (4035a4fb49, 2020-05-01)" sodipodi:docname="maximize_icon.svg" xmlns:cc="http://creativecommons.org/ns#" xmlns:dc="http://purl.org/dc/elements/1.1/" xmlns:inkscape="http://www.inkscape.org/namespaces/inkscape" xmlns:rdf="http://www.w3.org/1999/02/22-rdf-syntax-ns#" xmlns:sodipodi="http://sodipodi.sourceforge.net/DTD/sodipodi-0.dtd" xmlns:svg="http://www.w3.org/2000/svg"
	 xmlns="http://www.w3.org/2000/svg" xmlns:xlink="http://www.w3.org/1999/xlink" x="0px" y="0px" viewBox="0 0 512 512"
	 style="enable-background:new 0 0 512 512;" xml:space="preserve">
<style type="text/css">
	.st0{fill:none;}
	.st1{fill:#F9F9F9;}
</style>
<sodipodi:namedview  bordercolor="#666666" borderopacity="1" gridtolerance="10" guidetolerance="10" id="namedview6" inkscape:current-layer="svg4" inkscape:cx="229.96684" inkscape:cy="246.74177" inkscape:document-rotation="0" inkscape:pageopacity="0" inkscape:pageshadow="2" inkscape:window-height="1027" inkscape:window-maximized="1" inkscape:window-width="1920" inkscape:window-x="1912" inkscape:window-y="-4" inkscape:zoom="0.83984375" objecttolerance="10" pagecolor="#ffffff" showgrid="false">
	</sodipodi:namedview>
<g>
	<rect x="192" y="122.9" class="st0" width="203" height="203"/>
	<polygon class="st0" points="423.2,325.9 468.5,325.9 468.5,49.4 192,49.4 192,94.7 423.2,94.7 	"/>
	<polygon class="st0" points="163.8,122.9 118.5,122.9 118.5,399.4 395,399.4 395,354.1 163.8,354.1 	"/>
	<polygon class="st1" points="395,122.9 395,325.9 423.2,325.9 423.2,94.7 192,94.7 192,122.9 	"/>
	<polygon class="st1" points="395,399.4 118.5,399.4 118.5,122.9 163.8,122.9 163.8,94.7 90.3,94.7 90.3,427.6 423.2,427.6 
		423.2,354.1 395,354.1 	"/>
	<polygon class="st1" points="490.2,27.7 157.3,27.7 157.3,101.2 185.5,101.2 185.5,55.9 462,55.9 462,332.4 416.7,332.4 
		416.7,360.6 490.2,360.6 	"/>
	<rect x="395" y="325.9" class="st1" width="28.2" height="28.2"/>
	<rect x="163.8" y="94.7" class="st1" width="28.2" height="28.2"/>
</g>
</svg>
