<?xml version="1.0" encoding="utf-8"?>
<!-- Generator: Adobe Illustrator 24.1.1, SVG Export Plug-In . SVG Version: 6.00 Build 0)  -->
<svg version="1.1"
	 id="svg6" xmlns:cc="http://creativecommons.org/ns#" xmlns:dc="http://purl.org/dc/elements/1.1/" xmlns:inkscape="http://www.inkscape.org/namespaces/inkscape" xmlns:rdf="http://www.w3.org/1999/02/22-rdf-syntax-ns#" xmlns:sodipodi="http://sodipodi.sourceforge.net/DTD/sodipodi-0.dtd" xmlns:svg="http://www.w3.org/2000/svg"
	 xmlns="http://www.w3.org/2000/svg" xmlns:xlink="http://www.w3.org/1999/xlink" x="0px" y="0px" viewBox="0 0 512 512"
	 style="enable-background:new 0 0 512 512;" xml:space="preserve">
<style type="text/css">
	.st0{fill:#F9F9F9;}
</style>
<sodipodi:namedview  bordercolor="#666666" borderopacity="1" gridtolerance="10" guidetolerance="10" id="namedview8" inkscape:current-layer="svg6" inkscape:cx="256" inkscape:cy="256" inkscape:pageopacity="0" inkscape:pageshadow="2" inkscape:window-height="1057" inkscape:window-maximized="1" inkscape:window-width="1920" inkscape:window-x="-8" inkscape:window-y="-8" inkscape:zoom="1.6796875" objecttolerance="10" pagecolor="#ffffff" showgrid="false">
	</sodipodi:namedview>
<path class="st0" d="M464.7,322.3l-31.8-26.2c5.6-26.5,5.6-53.9,0-80.3l31.8-26.2c7.6-6.2,9.5-17,4.6-25.4l-32.6-56.5
	c-4.9-8.5-15.2-12.2-24.3-8.7l-38.6,14.4c-20.1-18.1-43.8-31.8-69.5-40.2l-6.8-40.6c-1.6-9.7-9.9-16.7-19.7-16.7h-65.2
	c-9.8,0-18.1,7.1-19.7,16.7L186,73.3c-25.8,8.3-49.5,22-69.5,40.2L77.9,99c-9.2-3.5-19.5,0.2-24.3,8.7L21,164.2
	c-4.9,8.5-3,19.2,4.6,25.4l31.8,26.2c-5.6,26.5-5.6,53.9,0,80.3l-31.8,26.2c-7.6,6.2-9.5,17-4.6,25.4l32.6,56.5
	c4.9,8.5,15.2,12.2,24.3,8.7l38.6-14.4c20.1,18.1,43.8,31.8,69.5,40.2l6.8,40.6c1.6,9.7,9.9,16.7,19.7,16.7h65.2
	c9.8,0,18.1-7.1,19.7-16.7l6.8-40.6c25.8-8.3,49.5-22,69.5-40.2l38.6,14.4c9.2,3.5,19.5-0.2,24.3-8.7l32.6-56.5
	C474.2,339.3,472.3,328.5,464.7,322.3z M245.2,312c-30.9,0-56-25.1-56-56c0-30.9,25.1-56,56-56c30.9,0,56,25.1,56,56
	C301.1,286.9,276.1,312,245.2,312z"/>
</svg>
